<svg width="32" height="32" xmlns="http://www.w3.org/2000/svg">
<symbol id="add" viewBox="0 0 32 32" fill="none">
<path fill-rule="evenodd" clip-rule="evenodd" d="M16 2.75024C16.6904 2.75024 17.25 3.30989 17.25 4.00024V14.7502H28C28.6904 14.7502 29.25 15.3099 29.25 16.0002C29.25 16.6906 28.6904 17.2502 28 17.2502H17.25V28.0002C17.25 28.6906 16.6904 29.2502 16 29.2502C15.3096 29.2502 14.75 28.6906 14.75 28.0002V17.2502H4C3.30964 17.2502 2.75 16.6906 2.75 16.0002C2.75 15.3099 3.30964 14.7502 4 14.7502H14.75V4.00024C14.75 3.30989 15.3096 2.75024 16 2.75024Z" fill="currentColor"/>
</symbol>
</svg>
