<svg width="7" height="7" xmlns="http://www.w3.org/2000/svg">
<symbol id="area-drag" viewBox="0 0 7 7" fill="none">
<path fill-rule="evenodd" clip-rule="evenodd" d="M0.159401 5.82965C-0.0363321 5.63391 -0.0539624 5.3342 0.120022 5.16021L5.16046 0.119778C5.33444 -0.0542064 5.63416 -0.0365763 5.82989 0.159157C6.02562 0.354889 6.04325 0.654605 5.86927 0.82859L0.828834 5.86903C0.654849 6.04301 0.355134 6.02538 0.159401 5.82965Z" fill="currentColor"/>
<path fill-rule="evenodd" clip-rule="evenodd" d="M2.99434 5.82965C2.79861 5.63391 2.76688 5.3483 2.92346 5.19172L5.19166 2.92352C5.34824 2.76693 5.63386 2.79867 5.82959 2.9944C6.02532 3.19014 6.05706 3.47575 5.90047 3.63233L3.63227 5.90053C3.47569 6.05712 3.19008 6.02538 2.99434 5.82965Z" fill="currentColor"/>
</symbol>
</svg>
